<svg width="55" height="55" viewBox="0 0 55 55" fill="none" xmlns="http://www.w3.org/2000/svg">
<circle cx="27.5" cy="27.5" r="27" fill="url(#paint0_linear_201_64)"/>
<path d="M13.1562 31.2969C12.2243 31.2969 11.4598 32.0544 11.5552 32.9815C11.9405 36.7262 13.6019 40.2451 16.2878 42.931C19.3733 46.0166 23.5582 47.75 27.9219 47.75C32.2855 47.75 36.4704 46.0166 39.556 42.931C42.2419 40.2451 43.9033 36.7262 44.2886 32.9815C44.384 32.0544 43.6195 31.2969 42.6875 31.2969L27.9219 31.2969L13.1562 31.2969Z" fill="#363447"/>
<path d="M23.9981 21.1719C24.5342 21.1719 24.9775 20.734 24.8831 20.2063C24.6871 19.1104 24.1604 18.0918 23.3624 17.2938C22.3339 16.2653 20.9389 15.6875 19.4844 15.6875C18.0298 15.6875 16.6349 16.2653 15.6063 17.2938C14.8083 18.0918 14.2817 19.1104 14.0857 20.2063C13.9913 20.734 14.4346 21.1719 14.9706 21.1719C15.5067 21.1719 15.9284 20.7294 16.0734 20.2133C16.2363 19.6337 16.5458 19.0998 16.979 18.6665C17.6435 18.0021 18.5447 17.6288 19.4844 17.6288C20.4241 17.6288 21.3253 18.0021 21.9897 18.6665C22.423 19.0998 22.7324 19.6337 22.8954 20.2133C23.0404 20.7294 23.462 21.1719 23.9981 21.1719Z" fill="#363447"/>
<path d="M40.0294 21.1719C40.5654 21.1719 41.0087 20.734 40.9143 20.2063C40.7183 19.1104 40.1917 18.0918 39.3937 17.2938C38.3651 16.2653 36.9702 15.6875 35.5156 15.6875C34.0611 15.6875 32.6661 16.2653 31.6376 17.2938C30.8396 18.0918 30.3129 19.1104 30.1169 20.2063C30.0225 20.734 30.4658 21.1719 31.0019 21.1719C31.538 21.1719 31.9596 20.7294 32.1046 20.2133C32.2676 19.6337 32.577 19.0998 33.0103 18.6665C33.6747 18.0021 34.5759 17.6288 35.5156 17.6288C36.4553 17.6288 37.3565 18.0021 38.021 18.6665C38.4542 19.0998 38.7637 19.6337 38.9266 20.2133C39.0716 20.7294 39.4933 21.1719 40.0294 21.1719Z" fill="#363447"/>
<defs>
<linearGradient id="paint0_linear_201_64" x1="27.5" y1="0.5" x2="27.5" y2="54.5" gradientUnits="userSpaceOnUse">
<stop stop-color="#81FBB8"/>
<stop offset="1" stop-color="#28C76F"/>
</linearGradient>
</defs>
</svg>
